<svg xmlns="http://www.w3.org/2000/svg" width="185" height="35" fill="none"><clipPath id="a"><path d="M0 0h185v35H0z"/></clipPath><g clip-path="url(#a)"><g fill="#002a42"><path d="M58.615 30.919V4.106h3.448v23.522h11.3v3.296H58.615zM75.69 24.139V13.257h3.295v10.116c0 3.102 1.136 5.135 4.245 5.135 3.6 0 4.968-2.759 4.968-5.592v-9.654h3.296v17.662h-3.296v-3.216c-.95 2.182-2.995 3.678-5.873 3.678-3.906 0-6.636-2.376-6.636-7.242zM94.736 22.11c0-5.477 3.295-9.27 8.682-9.27 4.702 0 7.732 2.605 8.151 6.551h-3.296c-.453-2.336-2.125-3.564-4.89-3.564-3.335 0-5.381 2.337-5.381 6.284 0 3.946 2.046 6.283 5.381 6.283 2.77 0 4.437-1.228 4.89-3.45h3.296c-.419 3.867-3.449 6.437-8.151 6.437-5.382 0-8.682-3.792-8.682-9.27zM114.176 22.11c0-5.209 3.296-9.31 8.716-9.31 2.77 0 5.042 1.417 6.139 3.599v-3.142h3.262V30.92h-3.262v-3.102c-1.097 2.182-3.6 3.564-6.217 3.564-5.574 0-8.643-4.061-8.643-9.27zm15.013 0c0-3.41-2.086-6.322-5.913-6.322-3.601 0-5.839 2.679-5.839 6.322 0 3.644 2.238 6.284 5.839 6.284 3.827 0 5.913-2.873 5.913-6.283zM136.272 30.919V13.262h3.296v3.256c.949-2.262 3.069-3.718 6.104-3.718 4.285 0 6.484 2.53 6.484 7.243v10.88h-3.262V21.5c0-3.947-1.289-5.82-4.397-5.82-3.109 0-4.929 2.335-4.929 5.9v9.345h-3.296zM172.038 23.07h-13.532c.074 3.41 2.159 5.403 5.495 5.403 2.311 0 3.905-.92 4.623-2.605h3.296c-.605 3.256-3.827 5.518-7.924 5.518-5.382 0-8.756-3.599-8.756-9.31 0-5.712 3.414-9.271 8.603-9.271 5.19 0 8.264 3.45 8.264 8.311 0 .651 0 1.149-.074 1.954zm-3.148-2.57c0-3.102-1.894-5.02-5.081-5.02-3.188 0-5.155 2.027-5.308 5.02zM185 27.931v2.948c-.644.154-1.82.268-2.956.268-2.047 0-5.347-.382-5.347-6.089v-9.002h-3.148v-2.799h3.148V7.665h3.296v5.592h4.397v2.799h-4.397v8.276c0 3.37 1.136 3.833 2.803 3.833.645 0 1.707-.114 2.199-.229zM0 26.505c0 3.534.792 5.09 2.066 6.377 1.27 1.288 2.828 2.113 6.139 2.113h14.89V24.228H10.66V0H0z"/></g><path fill="#9628ff" d="M37.301 8.495c0-3.534-.792-5.09-2.066-6.377C33.966.83 32.412 0 29.101 0h-14.89v10.772h12.435v24.233h10.66V8.495z"/></g></svg>